<svg width="42" height="42" viewBox="0 0 42 42" fill="none" xmlns="http://www.w3.org/2000/svg">
<g id="ant-design:facebook-filled">
<path id="Vector" d="M36.2106 5.4502H6.75153C6.04307 5.4502 5.4707 6.02257 5.4707 6.73103V36.1901C5.4707 36.8986 6.04307 37.471 6.75153 37.471H36.2106C36.9191 37.471 37.4915 36.8986 37.4915 36.1901V6.73103C37.4915 6.02257 36.9191 5.4502 36.2106 5.4502ZM32.5122 14.7963H29.9546C27.9493 14.7963 27.561 15.7489 27.561 17.1498V20.2358H32.3481L31.7237 25.0669H27.561V37.471H22.5698V25.0709H18.3951V20.2358H22.5698V16.6735C22.5698 12.5388 25.0954 10.2853 28.7858 10.2853C30.555 10.2853 32.072 10.4174 32.5163 10.4775V14.7963H32.5122Z" fill="#471AA0"/>
</g>
</svg>
