<svg width="63" height="58" viewBox="0 0 63 58" fill="none" xmlns="http://www.w3.org/2000/svg">
<path id="Vector" d="M17.8794 33.2874L27.0558 24.1109L6.98437 4.07188C5.42794 2.51545 2.73661 2.93699 1.76385 4.94737C-0.538371 9.77879 0.304694 15.7127 4.29304 19.7334L17.8794 33.2874ZM39.8639 27.4183C44.8251 29.7205 51.7966 28.0993 56.9522 22.9436C63.1455 16.7503 64.3453 7.86568 59.5787 3.09911C54.8446 -1.63502 45.9599 -0.467703 39.7342 5.72559C34.5786 10.8813 32.9573 17.8528 35.2595 22.8139L5.8819 52.1915C5.27561 52.7978 4.935 53.6201 4.935 54.4775C4.935 55.3349 5.27561 56.1572 5.8819 56.7635C6.48818 57.3698 7.31049 57.7104 8.1679 57.7104C9.02532 57.7104 9.84762 57.3698 10.4539 56.7635L30.5254 36.7569L50.5644 56.7959C50.8646 57.0961 51.221 57.3343 51.6132 57.4967C52.0054 57.6592 52.4258 57.7428 52.8504 57.7428C53.2749 57.7428 53.6953 57.6592 54.0876 57.4967C54.4798 57.3343 54.8362 57.0961 55.1364 56.7959C55.4366 56.4957 55.6747 56.1393 55.8372 55.7471C55.9997 55.3549 56.0833 54.9345 56.0833 54.5099C56.0833 54.0854 55.9997 53.665 55.8372 53.2727C55.6747 52.8805 55.4366 52.5241 55.1364 52.2239L35.0974 32.1849L39.8639 27.4183Z" fill="#471AA0"/>
</svg>
