<svg width="63" height="58" viewBox="0 0 63 58" fill="none" xmlns="http://www.w3.org/2000/svg">
<path id="Vector" d="M62.5 40.4343V51.9015C62.5 53.4221 61.8468 54.8805 60.6841 55.9557C59.5213 57.031 57.9443 57.6351 56.3 57.6351H43.9V51.9015C43.9 50.3809 43.2468 48.9225 42.0841 47.8472C40.9213 46.772 39.3443 46.1679 37.7 46.1679C36.0557 46.1679 34.4787 46.772 33.3159 47.8472C32.1532 48.9225 31.5 50.3809 31.5 51.9015V57.6351H19.1C17.4557 57.6351 15.8787 57.031 14.7159 55.9557C13.5532 54.8805 12.9 53.4221 12.9 51.9015V40.4343H6.7C5.05566 40.4343 3.47866 39.8303 2.31594 38.755C1.15321 37.6798 0.5 36.2214 0.5 34.7008C0.5 33.1801 1.15321 31.7218 2.31594 30.6465C3.47866 29.5713 5.05566 28.9672 6.7 28.9672H12.9V17.5C12.9 14.3466 15.69 11.7665 19.1 11.7665H31.5V6.03289C31.5 4.51225 32.1532 3.0539 33.3159 1.97864C34.4787 0.903388 36.0557 0.299316 37.7 0.299316C39.3443 0.299316 40.9213 0.903388 42.0841 1.97864C43.2468 3.0539 43.9 4.51225 43.9 6.03289V11.7665H56.3C57.9443 11.7665 59.5213 12.3705 60.6841 13.4458C61.8468 14.521 62.5 15.9794 62.5 17.5V28.9672H56.3C54.6557 28.9672 53.0787 29.5713 51.9159 30.6465C50.7532 31.7218 50.1 33.1801 50.1 34.7008C50.1 36.2214 50.7532 37.6798 51.9159 38.755C53.0787 39.8303 54.6557 40.4343 56.3 40.4343H62.5Z" fill="#471AA0"/>
</svg>
