<svg width="42" height="42" viewBox="0 0 42 42" fill="none" xmlns="http://www.w3.org/2000/svg">
<g id="ant-design:linkedin-filled">
<path id="Vector" d="M36.197 5.4502H6.73786C6.0294 5.4502 5.45703 6.02257 5.45703 6.73103V36.1901C5.45703 36.8986 6.0294 37.471 6.73786 37.471H36.197C36.9054 37.471 37.4778 36.8986 37.4778 36.1901V6.73103C37.4778 6.02257 36.9054 5.4502 36.197 5.4502ZM14.9552 32.7359H10.2041V17.454H14.9552V32.7359ZM12.5817 15.3646C12.037 15.3646 11.5046 15.2031 11.0517 14.9005C10.5989 14.5979 10.2459 14.1679 10.0375 13.6647C9.82906 13.1615 9.77453 12.6078 9.88078 12.0736C9.98704 11.5394 10.2493 11.0487 10.6344 10.6636C11.0196 10.2785 11.5102 10.0162 12.0444 9.90997C12.5786 9.80371 13.1323 9.85825 13.6355 10.0667C14.1387 10.2751 14.5688 10.6281 14.8713 11.0809C15.1739 11.5338 15.3354 12.0662 15.3354 12.6108C15.3314 14.1318 14.0986 15.3646 12.5817 15.3646ZM32.7427 32.7359H27.9957V25.3031C27.9957 23.5299 27.9636 21.2524 25.5261 21.2524C23.0565 21.2524 22.6762 23.1817 22.6762 25.175V32.7359H17.9331V17.454H22.4881V19.5433H22.5521C23.1845 18.3426 24.7335 17.0737 27.047 17.0737C31.8582 17.0737 32.7427 20.2398 32.7427 24.3545V32.7359Z" fill="#471AA0"/>
</g>
</svg>
